<?xml version="1.0" encoding="UTF-8" standalone="no"?>
<!-- Created with Inkscape (http://www.inkscape.org/) -->

<svg
   xmlns:dc="http://purl.org/dc/elements/1.1/"
   xmlns:cc="http://creativecommons.org/ns#"
   xmlns:rdf="http://www.w3.org/1999/02/22-rdf-syntax-ns#"
   xmlns:svg="http://www.w3.org/2000/svg"
   xmlns="http://www.w3.org/2000/svg"
   xmlns:sodipodi="http://sodipodi.sourceforge.net/DTD/sodipodi-0.dtd"
   xmlns:inkscape="http://www.inkscape.org/namespaces/inkscape"
   width="285.75mm"
   height="619.125mm"
   viewBox="0 0 285.75 619.125"
   version="1.1"
   id="svg8"
   inkscape:version="0.92.4 (5da689c313, 2019-01-14)"
   sodipodi:docname="back.svg">
  <defs
     id="defs2">
    <inkscape:path-effect
       effect="bspline"
       id="path-effect4701"
       is_visible="true"
       weight="33.333333"
       steps="2"
       helper_size="0"
       apply_no_weight="true"
       apply_with_weight="true"
       only_selected="false" />
    <inkscape:path-effect
       effect="bspline"
       id="path-effect4697"
       is_visible="true"
       weight="33.333333"
       steps="2"
       helper_size="0"
       apply_no_weight="true"
       apply_with_weight="true"
       only_selected="false" />
    <inkscape:path-effect
       effect="bspline"
       id="path-effect4693"
       is_visible="true"
       weight="33.333333"
       steps="2"
       helper_size="0"
       apply_no_weight="true"
       apply_with_weight="true"
       only_selected="false" />
    <inkscape:path-effect
       effect="bspline"
       id="path-effect4683"
       is_visible="true"
       weight="33.333333"
       steps="2"
       helper_size="0"
       apply_no_weight="true"
       apply_with_weight="true"
       only_selected="false" />
    <inkscape:path-effect
       effect="bspline"
       id="path-effect4679"
       is_visible="true"
       weight="33.333333"
       steps="2"
       helper_size="0"
       apply_no_weight="true"
       apply_with_weight="true"
       only_selected="false" />
    <inkscape:path-effect
       effect="bspline"
       id="path-effect4596"
       is_visible="true"
       weight="33.333333"
       steps="2"
       helper_size="0"
       apply_no_weight="true"
       apply_with_weight="true"
       only_selected="false" />
    <inkscape:path-effect
       effect="bspline"
       id="path-effect4590"
       is_visible="true"
       weight="33.333333"
       steps="2"
       helper_size="0"
       apply_no_weight="true"
       apply_with_weight="true"
       only_selected="false" />
    <inkscape:path-effect
       effect="bspline"
       id="path-effect4586"
       is_visible="true"
       weight="33.333333"
       steps="2"
       helper_size="0"
       apply_no_weight="true"
       apply_with_weight="true"
       only_selected="false" />
    <inkscape:path-effect
       effect="bspline"
       id="path-effect22"
       is_visible="true"
       weight="33.333333"
       steps="2"
       helper_size="0"
       apply_no_weight="true"
       apply_with_weight="true"
       only_selected="false" />
    <inkscape:path-effect
       effect="bspline"
       id="path-effect22-8"
       is_visible="true"
       weight="33.333333"
       steps="2"
       helper_size="0"
       apply_no_weight="true"
       apply_with_weight="true"
       only_selected="false" />
    <inkscape:path-effect
       effect="bspline"
       id="path-effect22-4"
       is_visible="true"
       weight="33.333333"
       steps="2"
       helper_size="0"
       apply_no_weight="true"
       apply_with_weight="true"
       only_selected="false" />
    <inkscape:path-effect
       effect="bspline"
       id="path-effect22-3"
       is_visible="true"
       weight="33.333333"
       steps="2"
       helper_size="0"
       apply_no_weight="true"
       apply_with_weight="true"
       only_selected="false" />
    <inkscape:path-effect
       effect="bspline"
       id="path-effect4596-3"
       is_visible="true"
       weight="33.333333"
       steps="2"
       helper_size="0"
       apply_no_weight="true"
       apply_with_weight="true"
       only_selected="false" />
    <inkscape:path-effect
       effect="bspline"
       id="path-effect4701-0"
       is_visible="true"
       weight="33.333333"
       steps="2"
       helper_size="0"
       apply_no_weight="true"
       apply_with_weight="true"
       only_selected="false" />
    <inkscape:path-effect
       effect="bspline"
       id="path-effect4701-00"
       is_visible="true"
       weight="33.333333"
       steps="2"
       helper_size="0"
       apply_no_weight="true"
       apply_with_weight="true"
       only_selected="false" />
    <inkscape:path-effect
       effect="bspline"
       id="path-effect4679-2"
       is_visible="true"
       weight="33.333333"
       steps="2"
       helper_size="0"
       apply_no_weight="true"
       apply_with_weight="true"
       only_selected="false" />
    <inkscape:path-effect
       effect="bspline"
       id="path-effect4679-9"
       is_visible="true"
       weight="33.333333"
       steps="2"
       helper_size="0"
       apply_no_weight="true"
       apply_with_weight="true"
       only_selected="false" />
    <inkscape:path-effect
       effect="bspline"
       id="path-effect4679-97"
       is_visible="true"
       weight="33.333333"
       steps="2"
       helper_size="0"
       apply_no_weight="true"
       apply_with_weight="true"
       only_selected="false" />
  </defs>
  <sodipodi:namedview
     id="base"
     pagecolor="#ffffff"
     bordercolor="#666666"
     borderopacity="1.0"
     inkscape:pageopacity="0.0"
     inkscape:pageshadow="2"
     inkscape:zoom="0.0875"
     inkscape:cx="-335.02745"
     inkscape:cy="4597.5675"
     inkscape:document-units="mm"
     inkscape:current-layer="layer1"
     showgrid="false"
     inkscape:snap-smooth-nodes="true"
     inkscape:window-width="1920"
     inkscape:window-height="1017"
     inkscape:window-x="-8"
     inkscape:window-y="-8"
     inkscape:window-maximized="1">
    <inkscape:grid
       type="xygrid"
       id="grid4592"
       originx="565.07442"
       originy="485.51063" />
  </sodipodi:namedview>
  <metadata
     id="metadata5">
    <rdf:RDF>
      <cc:Work
         rdf:about="">
        <dc:format>image/svg+xml</dc:format>
        <dc:type
           rdf:resource="http://purl.org/dc/dcmitype/StillImage" />
        <dc:title />
      </cc:Work>
    </rdf:RDF>
  </metadata>
  <g
     inkscape:label="Layer 1"
     inkscape:groupmode="layer"
     id="layer1"
     transform="translate(565.0744,-163.38562)">
    <rect
       style="fill:#b9ffdd;fill-opacity:1;stroke:none;stroke-width:5.43008471"
       id="rect4685"
       width="285.75"
       height="619.125"
       x="-565.0744"
       y="163.38562" />
    <path
       style="fill:#ffffff;fill-opacity:0.39215686;stroke:none;stroke-width:0.26458332px;stroke-linecap:butt;stroke-linejoin:miter;stroke-opacity:1"
       d="m 70.114602,96.357393 c -0.881874,-7e-5 -1.763909,3.087051 -2.645853,6.173857 -3.086805,0.88194 -6.173296,1.7638 -6.173366,2.64581 -7e-5,0.88202 3.086561,1.76391 6.173366,2.64586 0.881944,3.0868 1.763838,6.17343 2.651821,6.15247 0.887983,-0.0209 1.757901,-3.06567 2.639846,-6.15247 3.086805,-0.88195 6.173925,-1.76398 6.173855,-2.64586 -7e-5,-0.88187 -3.08705,-1.76387 -6.173855,-2.64581 -0.881945,-3.086806 -1.76394,-6.173787 -2.645814,-6.173857 z"
       id="path4677"
       inkscape:connector-curvature="0"
       inkscape:path-effect="#path-effect4679"
       inkscape:original-d="m 70.114582,93.270833 c -0.881679,3.08654 -2.645833,9.260417 -2.645833,9.260417 0,0 -6.173346,1.76362 -9.260416,2.64583 3.08707,0.88168 9.260416,2.64584 9.260416,2.64584 0,0 1.764154,6.17334 2.645833,9.26041 0.819259,-3.15024 2.645834,-9.26041 2.645834,-9.26041 0,0 6.173875,-1.76416 9.260416,-2.64584 -3.086541,-0.88221 -9.260416,-2.64583 -9.260416,-2.64583 0,0 -1.763625,-6.173877 -2.645834,-9.260417 z"
       transform="matrix(1.4902159,-1.2576791,1.2591627,1.4919738,-558.23377,275.00251)"
       sodipodi:nodetypes="ccacccacc" />
    <path
       style="fill:#ffffff;fill-opacity:0.39215686;stroke:none;stroke-width:0.26458332px;stroke-linecap:butt;stroke-linejoin:miter;stroke-opacity:1"
       d="m 70.114583,97.239583 c -1.322917,-1.322917 -2.645834,-2.645834 -4.409536,-2.866394 -1.763702,-0.220561 -3.968312,0.661284 -5.291532,1.984291 -1.323221,1.323007 -1.764132,3.086651 -1.984657,5.07121 -0.220525,1.98455 -0.220525,4.18888 1.764077,6.61462 1.984601,2.42575 5.952898,5.07128 9.921648,7.71711 3.96875,-2.64583 7.937804,-5.29187 9.922027,-7.71725 1.984223,-2.42538 1.984222,-4.63024 1.763735,-6.61449 -0.220487,-1.984246 -0.661503,-3.748312 -1.984328,-5.071108 -1.322826,-1.322795 -3.527688,-2.20474 -5.291573,-1.984353 -1.763885,0.220388 -3.086945,1.543447 -4.409861,2.866364 z"
       id="path4699"
       inkscape:connector-curvature="0"
       inkscape:path-effect="#path-effect4701"
       inkscape:original-d="m 70.114583,97.239583 c 0,0 -2.64557,-2.646098 -3.968751,-3.96875 -2.204542,0.881658 -4.409152,1.763503 -6.614582,2.645834 -0.440769,1.763867 -0.88168,3.527511 -1.322917,5.291663 2.65e-4,2.20491 2.65e-4,4.40924 0,6.61459 3.969407,2.64583 11.90625,7.9375 11.90625,7.9375 0,0 7.937764,-5.29193 11.90625,-7.9375 2.64e-4,-2.20513 2.64e-4,-4.40999 -10e-7,-6.61459 -0.440663,-1.763974 -0.881679,-3.52804 -1.322915,-5.291663 -2.204598,-0.88221 -4.40946,-1.764155 -6.614585,-2.645834 -1.322773,1.322774 -3.968749,3.96875 -3.968749,3.96875 z"
       sodipodi:nodetypes="ccccccccccc"
       transform="matrix(1.0401761,1.0240178,-1.0701582,1.0870446,-484.00691,50.28153)" />
    <ellipse
       style="fill:none;fill-opacity:0.39215686;stroke:#ffffff;stroke-width:5.63450384;stroke-linecap:square;stroke-linejoin:round;stroke-miterlimit:4;stroke-dasharray:none;stroke-opacity:0.39215686"
       id="path4703"
       cx="-320.10806"
       cy="228.78722"
       rx="14.380664"
       ry="14.380665" />
    <path
       style="fill:#ffffff;fill-opacity:0.39215686;stroke:none;stroke-width:0.26458332px;stroke-linecap:butt;stroke-linejoin:miter;stroke-opacity:1"
       d="m 70.114583,97.239583 c -1.322917,-1.322917 -2.645834,-2.645834 -4.409536,-2.866394 -1.763702,-0.220561 -3.968312,0.661284 -5.291532,1.984291 -1.323221,1.323007 -1.764132,3.086651 -1.984657,5.07121 -0.220525,1.98455 -0.220525,4.18888 1.764077,6.61462 1.984601,2.42575 5.952898,5.07128 9.921648,7.71711 3.96875,-2.64583 7.937804,-5.29187 9.922027,-7.71725 1.984223,-2.42538 1.984222,-4.63024 1.763735,-6.61449 -0.220487,-1.984246 -0.661503,-3.748312 -1.984328,-5.071108 -1.322826,-1.322795 -3.527688,-2.20474 -5.291573,-1.984353 -1.763885,0.220388 -3.086945,1.543447 -4.409861,2.866364 z"
       id="path4699-1"
       inkscape:connector-curvature="0"
       inkscape:path-effect="#path-effect4701-0"
       inkscape:original-d="m 70.114583,97.239583 c 0,0 -2.64557,-2.646098 -3.968751,-3.96875 -2.204542,0.881658 -4.409152,1.763503 -6.614582,2.645834 -0.440769,1.763867 -0.88168,3.527511 -1.322917,5.291663 2.65e-4,2.20491 2.65e-4,4.40924 0,6.61459 3.969407,2.64583 11.90625,7.9375 11.90625,7.9375 0,0 7.937764,-5.29193 11.90625,-7.9375 2.64e-4,-2.20513 2.64e-4,-4.40999 -10e-7,-6.61459 -0.440663,-1.763974 -0.881679,-3.52804 -1.322915,-5.291663 -2.204598,-0.88221 -4.40946,-1.764155 -6.614585,-2.645834 -1.322773,1.322774 -3.968749,3.96875 -3.968749,3.96875 z"
       sodipodi:nodetypes="ccccccccccc"
       transform="matrix(1.2488021,-0.75569327,0.78974338,1.3050708,-481.00515,388.01259)" />
    <path
       style="fill:#ffffff;fill-opacity:0.39215686;stroke:none;stroke-width:0.26458332px;stroke-linecap:butt;stroke-linejoin:miter;stroke-opacity:1"
       d="m 70.114583,97.239583 c -1.322917,-1.322917 -2.645834,-2.645834 -4.409536,-2.866394 -1.763702,-0.220561 -3.968312,0.661284 -5.291532,1.984291 -1.323221,1.323007 -1.764132,3.086651 -1.984657,5.07121 -0.220525,1.98455 -0.220525,4.18888 1.764077,6.61462 1.984601,2.42575 5.952898,5.07128 9.921648,7.71711 3.96875,-2.64583 7.937804,-5.29187 9.922027,-7.71725 1.984223,-2.42538 1.984222,-4.63024 1.763735,-6.61449 -0.220487,-1.984246 -0.661503,-3.748312 -1.984328,-5.071108 -1.322826,-1.322795 -3.527688,-2.20474 -5.291573,-1.984353 -1.763885,0.220388 -3.086945,1.543447 -4.409861,2.866364 z"
       id="path4699-18"
       inkscape:connector-curvature="0"
       inkscape:path-effect="#path-effect4701-00"
       inkscape:original-d="m 70.114583,97.239583 c 0,0 -2.64557,-2.646098 -3.968751,-3.96875 -2.204542,0.881658 -4.409152,1.763503 -6.614582,2.645834 -0.440769,1.763867 -0.88168,3.527511 -1.322917,5.291663 2.65e-4,2.20491 2.65e-4,4.40924 0,6.61459 3.969407,2.64583 11.90625,7.9375 11.90625,7.9375 0,0 7.937764,-5.29193 11.90625,-7.9375 2.64e-4,-2.20513 2.64e-4,-4.40999 -10e-7,-6.61459 -0.440663,-1.763974 -0.881679,-3.52804 -1.322915,-5.291663 -2.204598,-0.88221 -4.40946,-1.764155 -6.614585,-2.645834 -1.322773,1.322774 -3.968749,3.96875 -3.968749,3.96875 z"
       sodipodi:nodetypes="ccccccccccc"
       transform="matrix(1.0257883,1.0384301,-1.0852198,1.0720085,-382.98619,545.08388)" />
    <ellipse
       style="fill:none;fill-opacity:0.39215686;stroke:#ffffff;stroke-width:5.63450384;stroke-linecap:square;stroke-linejoin:round;stroke-miterlimit:4;stroke-dasharray:none;stroke-opacity:0.39215686"
       id="path4703-8"
       cx="-526.27197"
       cy="362.88461"
       rx="14.380664"
       ry="14.380665" />
    <ellipse
       style="fill:none;fill-opacity:0.39215686;stroke:#ffffff;stroke-width:5.63450384;stroke-linecap:square;stroke-linejoin:round;stroke-miterlimit:4;stroke-dasharray:none;stroke-opacity:0.39215686"
       id="path4703-89"
       cx="-417.06525"
       cy="524.89465"
       rx="14.380664"
       ry="14.380665" />
    <path
       style="fill:#ffffff;fill-opacity:0.39215686;stroke:none;stroke-width:0.26458332px;stroke-linecap:butt;stroke-linejoin:miter;stroke-opacity:1"
       d="m 70.114602,96.357393 c -0.881874,-7e-5 -1.763909,3.087051 -2.645853,6.173857 -3.086805,0.88194 -6.173296,1.7638 -6.173366,2.64581 -7e-5,0.88202 3.086561,1.76391 6.173366,2.64586 0.881944,3.0868 1.763838,6.17343 2.651821,6.15247 0.887983,-0.0209 1.757901,-3.06567 2.639846,-6.15247 3.086805,-0.88195 6.173925,-1.76398 6.173855,-2.64586 -7e-5,-0.88187 -3.08705,-1.76387 -6.173855,-2.64581 -0.881945,-3.086806 -1.76394,-6.173787 -2.645814,-6.173857 z"
       id="path4677-6"
       inkscape:connector-curvature="0"
       inkscape:path-effect="#path-effect4679-2"
       inkscape:original-d="m 70.114582,93.270833 c -0.881679,3.08654 -2.645833,9.260417 -2.645833,9.260417 0,0 -6.173346,1.76362 -9.260416,2.64583 3.08707,0.88168 9.260416,2.64584 9.260416,2.64584 0,0 1.764154,6.17334 2.645833,9.26041 0.819259,-3.15024 2.645834,-9.26041 2.645834,-9.26041 0,0 6.173875,-1.76416 9.260416,-2.64584 -3.086541,-0.88221 -9.260416,-2.64583 -9.260416,-2.64583 0,0 -1.763625,-6.173877 -2.645834,-9.260417 z"
       transform="matrix(1.95,0,0,1.9523003,-446.5825,465.58721)"
       sodipodi:nodetypes="ccacccacc" />
    <path
       style="fill:#ffffff;fill-opacity:0.39215686;stroke:none;stroke-width:0.26458332px;stroke-linecap:butt;stroke-linejoin:miter;stroke-opacity:1"
       d="m 70.114602,96.357393 c -0.881874,-7e-5 -1.763909,3.087051 -2.645853,6.173857 -3.086805,0.88194 -6.173296,1.7638 -6.173366,2.64581 -7e-5,0.88202 3.086561,1.76391 6.173366,2.64586 0.881944,3.0868 1.763838,6.17343 2.651821,6.15247 0.887983,-0.0209 1.757901,-3.06567 2.639846,-6.15247 3.086805,-0.88195 6.173925,-1.76398 6.173855,-2.64586 -7e-5,-0.88187 -3.08705,-1.76387 -6.173855,-2.64581 -0.881945,-3.086806 -1.76394,-6.173787 -2.645814,-6.173857 z"
       id="path4677-62"
       inkscape:connector-curvature="0"
       inkscape:path-effect="#path-effect4679-9"
       inkscape:original-d="m 70.114582,93.270833 c -0.881679,3.08654 -2.645833,9.260417 -2.645833,9.260417 0,0 -6.173346,1.76362 -9.260416,2.64583 3.08707,0.88168 9.260416,2.64584 9.260416,2.64584 0,0 1.764154,6.17334 2.645833,9.26041 0.819259,-3.15024 2.645834,-9.26041 2.645834,-9.26041 0,0 6.173875,-1.76416 9.260416,-2.64584 -3.086541,-0.88221 -9.260416,-2.64583 -9.260416,-2.64583 0,0 -1.763625,-6.173877 -2.645834,-9.260417 z"
       transform="matrix(1.8513978,0.6122306,-0.61295281,1.8535818,-587.22765,275.83341)"
       sodipodi:nodetypes="ccacccacc" />
    <path
       style="fill:#ffffff;fill-opacity:0.39215686;stroke:none;stroke-width:0.26458332px;stroke-linecap:butt;stroke-linejoin:miter;stroke-opacity:1"
       d="m 70.114602,96.357393 c -0.881874,-7e-5 -1.763909,3.087051 -2.645853,6.173857 -3.086805,0.88194 -6.173296,1.7638 -6.173366,2.64581 -7e-5,0.88202 3.086561,1.76391 6.173366,2.64586 0.881944,3.0868 1.763838,6.17343 2.651821,6.15247 0.887983,-0.0209 1.757901,-3.06567 2.639846,-6.15247 3.086805,-0.88195 6.173925,-1.76398 6.173855,-2.64586 -7e-5,-0.88187 -3.08705,-1.76387 -6.173855,-2.64581 -0.881945,-3.086806 -1.76394,-6.173787 -2.645814,-6.173857 z"
       id="path4677-4"
       inkscape:connector-curvature="0"
       inkscape:path-effect="#path-effect4679-97"
       inkscape:original-d="m 70.114582,93.270833 c -0.881679,3.08654 -2.645833,9.260417 -2.645833,9.260417 0,0 -6.173346,1.76362 -9.260416,2.64583 3.08707,0.88168 9.260416,2.64584 9.260416,2.64584 0,0 1.764154,6.17334 2.645833,9.26041 0.819259,-3.15024 2.645834,-9.26041 2.645834,-9.26041 0,0 6.173875,-1.76416 9.260416,-2.64584 -3.086541,-0.88221 -9.260416,-2.64583 -9.260416,-2.64583 0,0 -1.763625,-6.173877 -2.645834,-9.260417 z"
       transform="matrix(1.8806881,0.51527899,-0.51588682,1.8829066,-504.28092,-36.485666)"
       sodipodi:nodetypes="ccacccacc" />
    <ellipse
       style="fill:none;fill-opacity:0.39215686;stroke:#ffffff;stroke-width:5.63450384;stroke-linecap:square;stroke-linejoin:round;stroke-miterlimit:4;stroke-dasharray:none;stroke-opacity:0.39215686"
       id="path4703-89-8"
       cx="-523.4718"
       cy="698.50543"
       rx="14.380664"
       ry="14.380665" />
  </g>
</svg>
