<?xml version="1.0" encoding="utf-8"?>
<!-- Generator: Adobe Illustrator 23.1.0, SVG Export Plug-In . SVG Version: 6.00 Build 0)  -->
<svg version="1.1" id="Слой_1" xmlns="http://www.w3.org/2000/svg" xmlns:xlink="http://www.w3.org/1999/xlink" x="0px" y="0px"
	 viewBox="0 0 411 150" style="enable-background:new 0 0 411 150;" xml:space="preserve">
<style type="text/css">
	.st0{fill:#FF0000;stroke:#FFFFFF;stroke-width:4;stroke-miterlimit:10;}
</style>
<g>
	<path class="st0" d="M18.22,19.19h56.67v16.06h-5.21c-2.87,0-4.83,0.29-5.87,0.87c-1.05,0.58-1.79,1.41-2.23,2.5
		c-0.44,1.08-0.66,3.43-0.66,7.03v20.22h42.27V44.16c0-2.66-0.17-4.47-0.5-5.41c-0.44-1.33-1.19-2.25-2.25-2.75
		c-1.05-0.5-3.38-0.75-6.99-0.75h-4.41V19.19h56.84v16.06h-4.74c-3.22,0-5.35,0.26-6.41,0.79c-1.05,0.53-1.79,1.3-2.21,2.33
		c-0.42,1.03-0.62,3.45-0.62,7.28v62.91c0,3.88,0.26,6.4,0.79,7.53c0.53,1.14,1.33,1.94,2.41,2.41c1.08,0.47,3.56,0.71,7.45,0.71
		h3.33v16.06H89.04v-16.06h3.74c3.5,0,5.87-0.28,7.12-0.83c1.25-0.55,2.11-1.36,2.58-2.41c0.47-1.05,0.71-3.52,0.71-7.41V84.02
		H60.91v24.55c0,3.88,0.17,6.3,0.5,7.24c0.55,1.39,1.41,2.3,2.56,2.75c1.16,0.44,3.5,0.67,7.03,0.67h3.89v16.06H18.22v-16.06h3.85
		c3.24,0,5.5-0.28,6.78-0.83c1.28-0.55,2.16-1.33,2.64-2.33c0.47-1,0.71-3.19,0.71-6.57V46.41c0-3.94-0.24-6.5-0.71-7.7
		c-0.47-1.19-1.21-2.07-2.22-2.62c-1-0.55-2.96-0.83-5.86-0.83h-5.19V19.19z"/>
	<path class="st0" d="M158.44,19.19h96.94l13.24,36.7l-15.06,5.41c-2.55-5.99-5.53-10.82-8.95-14.48
		c-3.41-3.66-7.19-6.09-11.32-7.28c-4.13-1.19-8.95-1.79-14.44-1.79h-17.73v28.96h5.83c4.38,0,7.34-0.32,8.86-0.96
		c1.52-0.64,2.62-1.64,3.29-3c0.67-1.36,1-4.06,1-8.11v-4.41h14.81v49.18h-14.81V94.4c0-3.4-0.4-5.88-1.21-7.45
		c-0.8-1.56-1.9-2.62-3.29-3.18c-1.39-0.56-4.47-0.84-9.24-0.84h-5.24v26.7c0,2.84,0.14,4.56,0.42,5.17
		c0.28,0.61,0.82,1.08,1.62,1.42c0.8,0.33,2.54,0.5,5.2,0.5h9.74c7.27,0,13.4-1.04,18.4-3.13c5-2.09,9.45-5.46,13.36-10.12
		c3.91-4.65,6.92-10.19,9.03-16.6l15.2,5.25l-15.24,43.16H158.44v-16.06h2.91c3.88,0,6.49-0.28,7.82-0.83
		c1.33-0.55,2.27-1.53,2.83-2.91c0.28-0.83,0.42-3.19,0.42-7.07V45.16c0-3.44-0.24-5.69-0.71-6.74c-0.47-1.05-1.21-1.84-2.21-2.37
		c-1-0.53-2.97-0.79-5.91-0.79h-5.16V19.19z"/>
	<path class="st0" d="M289.26,15.28h10.98l1.16,3.91h65.41l1.41-3.91h11.07l14.4,40.69l-15.48,5.41
		c-3.44-6.77-5.91-11.18-7.41-13.23c-2.94-4.05-6.32-7.24-10.15-9.57c-2.89-1.77-5.74-2.66-8.57-2.66c-1.33,0-2.25,0.32-2.75,0.96
		c-0.5,0.64-0.75,2.09-0.75,4.37v66.74c0,3.94,0.14,6.41,0.42,7.41c0.28,1,0.75,1.79,1.42,2.37c0.67,0.58,1.59,0.97,2.76,1.17
		c1.17,0.19,4.3,0.29,9.38,0.29v16.06h-56.67v-16.06h3.43c3.79,0,6.22-0.23,7.28-0.71c1.06-0.47,1.87-1.3,2.43-2.5
		c0.56-1.19,0.84-3.67,0.84-7.45V40.33c0-1.94-0.22-3.16-0.67-3.66c-0.44-0.5-1.39-0.75-2.83-0.75c-2.89,0-6.1,1.08-9.65,3.25
		c-3.55,2.16-6.71,5.22-9.49,9.15c-1.11,1.55-3.47,5.91-7.07,13.07l-15.23-5.41L289.26,15.28z"/>
</g>
</svg>
