<?xml version="1.0" encoding="utf-8"?>
<!-- Generator: Adobe Illustrator 23.1.0, SVG Export Plug-In . SVG Version: 6.00 Build 0)  -->
<svg version="1.1" id="Capa_1" xmlns="http://www.w3.org/2000/svg" xmlns:xlink="http://www.w3.org/1999/xlink" x="0px" y="0px"
	 viewBox="0 0 254.4 254.4" style="enable-background:new 0 0 254.4 254.4;" xml:space="preserve">
<style type="text/css">
	.st0{fill:#8D5FD3;}
</style>
<path class="st0" d="M254.4,82.01l-28.13,62.97l-62.97-28.13l29.51-11.28c-9.07-26.29-34.04-45.24-63.38-45.24
	c-28.16,0-53.5,17.78-63.07,44.25L32.28,92.25c14.73-40.77,53.77-68.17,97.14-68.17c44.76,0,82.95,28.63,97.25,68.53L254.4,82.01z
	 M124.97,230.32c43.37,0,82.41-27.39,97.14-68.17l-34.08-12.31c-9.56,26.46-34.91,44.25-63.06,44.25
	c-29.33,0-54.31-18.95-63.38-45.24l29.51-11.28l-62.97-28.13L0,172.39l27.73-10.6C42.02,201.69,80.22,230.32,124.97,230.32z"/>
</svg>
