<?xml version="1.0" encoding="utf-8"?>
<!-- Generator: Adobe Illustrator 23.1.0, SVG Export Plug-In . SVG Version: 6.00 Build 0)  -->
<svg version="1.1" id="Слой_1" xmlns="http://www.w3.org/2000/svg" xmlns:xlink="http://www.w3.org/1999/xlink" x="0px" y="0px"
	 viewBox="0 0 411 150" style="enable-background:new 0 0 411 150;" xml:space="preserve">
<style type="text/css">
	.st0{fill:#009245;}
	.st1{fill:#FFFFFF;}
</style>
<g>
	<g>
		<g>
			<path class="st0" d="M76.34,145.45l-20.02-9.26l12.7-35.92h4.35c4.96,0,8.14-0.23,9.55-0.69c1.41-0.46,2.78-1.49,4.12-3.09
				c1.33-1.6,3.15-4.92,5.43-9.95l19.44-43.12c1.22-2.59,1.83-4.61,1.83-6.06c0-2.82-0.97-4.71-2.92-5.66
				c-1.94-0.95-5.74-1.43-11.38-1.43h-3.2V8.2h114.72v22.08h-3.32c-6.1,0-9.89,0.53-11.38,1.6c-1.49,1.07-2.23,3.85-2.23,8.35v50.21
				c0,4.42,0.74,7.17,2.23,8.24c1.49,1.07,5.51,1.6,12.07,1.6h5.6l12.92,35.92l-20.02,9.26c-4.88-8.77-9.43-14.81-13.66-18.13
				c-4.23-3.32-11.33-4.98-21.31-4.98h-60.57c-9.98,0-17.11,1.68-21.37,5.03C85.68,130.74,81.14,136.76,76.34,145.45z M157.55,97.64
				V32.9h-14.08l-22.75,54.9c-0.76,1.83-1.14,3.09-1.14,3.77c0,2.67,0.76,4.35,2.29,5.03c1.52,0.69,5.57,1.03,12.12,1.03H157.55z"/>
			<path class="st1" d="M77.2,148.05l-23.36-10.81l13.77-38.96h5.76c6.19,0,8.26-0.37,8.93-0.59c1.04-0.34,2.11-1.17,3.2-2.47
				c0.83-1,2.41-3.47,5.15-9.5l19.44-43.12c1.37-2.91,1.65-4.45,1.65-5.24c0-2.67-1.03-3.49-1.8-3.87
				c-1.14-0.56-3.89-1.23-10.5-1.23h-5.2V6.2h118.72v26.08h-5.32c-7.89,0-9.81,0.94-10.21,1.23c-0.23,0.17-1.4,1.28-1.4,6.73v50.21
				c0,5.21,1.07,6.38,1.4,6.61c0.4,0.29,2.37,1.23,10.9,1.23h7.01l14.02,38.96l-23.36,10.81l-0.9-1.62
				c-4.72-8.49-9.14-14.39-13.14-17.53c-3.85-3.02-10.6-4.55-20.08-4.55h-60.57c-9.48,0-16.25,1.55-20.13,4.6
				c-4.03,3.17-8.44,9.05-13.08,17.47L77.2,148.05z M111.31,120.35h60.57c10.54,0,17.92,1.77,22.55,5.4
				c4.21,3.3,8.56,8.91,13.26,17.11l16.68-7.72l-11.83-32.87h-4.2c-9.29,0-11.95-1.06-13.23-1.98c-2.09-1.5-3.06-4.63-3.06-9.86
				V40.22c0-5.3,0.97-8.47,3.06-9.97c1.28-0.92,3.87-1.98,12.55-1.98h1.32V10.2H98.25v18.08h1.2c6.01,0,10.02,0.53,12.26,1.63
				c1.84,0.9,4.04,2.93,4.04,7.46c0,1.76-0.66,4.02-2.02,6.91L94.3,87.37c-2.38,5.25-4.25,8.65-5.72,10.41
				c-1.58,1.89-3.27,3.14-5.04,3.71c-1.04,0.34-3.22,0.78-10.17,0.78h-2.93l-11.62,32.87l16.68,7.72
				c4.63-8.13,8.96-13.72,13.2-17.05C93.38,122.13,100.77,120.35,111.31,120.35z M159.55,99.64h-25.56c-9.1,0-11.7-0.64-12.95-1.21
				c-1.58-0.71-3.47-2.48-3.47-6.86c0-0.67,0.15-1.79,1.3-4.54l23.26-56.13h17.42V99.64z M144.81,34.9l-22.24,53.67
				c-0.95,2.29-0.99,2.94-0.99,3.01c0,1.24,0.19,2.79,1.11,3.21c0.57,0.26,2.81,0.85,11.3,0.85h21.56V34.9H144.81z"/>
		</g>
		<g>
			<path class="st0" d="M302.01,53.15v-8.46c0-5.03-0.42-8.5-1.26-10.41c-0.84-1.91-2.36-3.49-4.58-4.75
				c-2.21-1.26-4.96-1.89-8.24-1.89c-2.52,0-4.8,0.42-6.86,1.26c-2.06,0.84-3.7,1.91-4.92,3.2c-1.22,1.3-2.63,3.81-4.23,7.55
				c-2.06,4.73-4.52,8.12-7.38,10.18c-2.86,2.06-6.23,3.09-10.12,3.09c-4.88,0-8.88-1.52-12.01-4.58
				c-3.13-3.05-4.69-6.82-4.69-11.32c0-5.11,1.6-9.65,4.8-13.61c4.27-5.26,10.64-9.57,19.1-12.92c8.46-3.35,18-5.03,28.59-5.03
				c10.6,0,19.62,1.72,27.05,5.15c7.44,3.43,12.62,7.53,15.56,12.3c2.93,4.77,4.4,12.03,4.4,21.79v40.95c0,5.03,0.27,8.26,0.8,9.67
				c0.53,1.41,1.68,2.65,3.43,3.72c1.75,1.07,3.7,1.6,5.83,1.6c2.13,0,4.99-0.61,8.58-1.83v22.3c-6.48,2.06-12.7,3.09-18.64,3.09
				c-7.02,0-13-1.14-17.96-3.43c-4.96-2.29-9.11-5.72-12.47-10.29c-7.63,4.96-14.55,8.48-20.76,10.58
				c-6.22,2.1-12.22,3.15-18.02,3.15c-10.91,0-19.71-3.07-26.42-9.21c-6.71-6.14-10.07-13.71-10.07-22.71
				c0-5.11,1.16-9.8,3.49-14.07c2.32-4.27,5.79-8.01,10.41-11.21c4.61-3.2,11.74-6.04,21.39-8.52
				C276.49,55.99,288.21,54.22,302.01,53.15z M302.01,72.14c-9.99,1.45-17.04,2.92-21.16,4.4c-4.12,1.49-7.05,3.36-8.81,5.6
				c-1.75,2.25-2.63,4.56-2.63,6.92c0,3.05,1.14,5.6,3.43,7.66c2.29,2.06,5.38,3.09,9.26,3.09c2.52,0,5.43-0.65,8.75-1.94
				c3.32-1.3,7.03-3.2,11.15-5.72V72.14z"/>
			<path class="st1" d="M337.24,126.18c-7.27,0-13.6-1.22-18.79-3.62c-4.69-2.16-8.75-5.33-12.09-9.44
				c-7.14,4.51-13.74,7.81-19.66,9.8c-6.4,2.16-12.67,3.25-18.65,3.25c-11.37,0-20.71-3.27-27.77-9.73
				c-7.11-6.5-10.71-14.64-10.71-24.18c0-5.43,1.26-10.48,3.73-15.03c2.46-4.53,6.17-8.53,11.02-11.9
				c4.79-3.32,12.2-6.29,22.03-8.82c9.28-2.38,20.6-4.14,33.67-5.23v-6.62c0-5.89-0.59-8.47-1.09-9.6
				c-0.67-1.52-1.89-2.76-3.73-3.81c-1.9-1.08-4.33-1.63-7.25-1.63c-2.24,0-4.3,0.37-6.11,1.11c-1.78,0.73-3.2,1.64-4.21,2.72
				c-0.72,0.77-1.98,2.6-3.85,6.97c-2.2,5.05-4.9,8.75-8.04,11.01c-3.2,2.3-7,3.47-11.29,3.47c-5.4,0-9.91-1.73-13.41-5.14
				c-3.51-3.42-5.29-7.72-5.29-12.75c0-5.55,1.77-10.56,5.25-14.87c4.47-5.51,11.17-10.06,19.92-13.53
				c8.66-3.43,18.53-5.17,29.33-5.17c10.84,0,20.23,1.79,27.89,5.33c7.76,3.58,13.29,7.98,16.42,13.06
				c3.16,5.14,4.7,12.61,4.7,22.84v40.95c0,6.25,0.42,8.3,0.67,8.96c0.37,0.98,1.24,1.89,2.6,2.72c1.45,0.88,3.01,1.31,4.79,1.31
				c1.91,0,4.58-0.58,7.93-1.72l2.64-0.9v26.56l-1.39,0.44C349.84,125.11,343.37,126.18,337.24,126.18z M307.31,107.75l1.12,1.52
				c3.14,4.28,7.07,7.53,11.69,9.66c4.67,2.16,10.43,3.25,17.12,3.25c5.29,0,10.88-0.86,16.64-2.57v-18.1
				c-2.61,0.74-4.78,1.11-6.58,1.11c-2.5,0-4.81-0.64-6.87-1.89c-2.13-1.3-3.57-2.89-4.26-4.72c-0.4-1.05-0.93-3.28-0.93-10.37
				V44.69c0-9.34-1.38-16.31-4.11-20.74c-2.71-4.4-7.66-8.28-14.69-11.53c-7.13-3.29-15.95-4.96-26.21-4.96
				c-10.29,0-19.67,1.65-27.86,4.89c-8.1,3.21-14.25,7.36-18.29,12.33c-2.93,3.63-4.36,7.67-4.36,12.35c0,3.98,1.34,7.21,4.09,9.89
				c2.76,2.7,6.23,4.01,10.61,4.01c3.49,0,6.42-0.89,8.96-2.71c2.55-1.84,4.81-4.98,6.71-9.35c1.71-3.98,3.22-6.64,4.61-8.12
				c1.41-1.5,3.3-2.74,5.62-3.68c2.29-0.93,4.86-1.41,7.62-1.41c3.61,0,6.72,0.72,9.22,2.15c2.58,1.47,4.4,3.38,5.42,5.68
				c0.96,2.19,1.43,5.85,1.43,11.21V55l-1.85,0.14c-13.62,1.05-25.34,2.82-34.83,5.26c-9.37,2.41-16.35,5.18-20.75,8.23
				c-4.33,3.01-7.63,6.55-9.79,10.52c-2.15,3.95-3.25,8.36-3.25,13.11c0,8.49,3.08,15.44,9.42,21.23c6.3,5.76,14.73,8.68,25.07,8.68
				c5.55,0,11.39-1.02,17.38-3.04c6.02-2.03,12.86-5.52,20.31-10.36L307.31,107.75z M282.11,101.82c-4.38,0-7.95-1.21-10.6-3.6
				c-2.72-2.45-4.09-5.52-4.09-9.15c0-2.81,1.03-5.55,3.05-8.15c1.98-2.54,5.25-4.65,9.71-6.26c4.28-1.55,11.33-3.02,21.55-4.5
				l2.29-0.33v23.45l-0.96,0.58c-4.2,2.56-8.05,4.54-11.47,5.88C288.06,101.12,284.87,101.82,282.11,101.82z M300.01,74.46
				c-8.62,1.31-14.83,2.65-18.48,3.97c-3.74,1.35-6.4,3.01-7.91,4.95c-1.49,1.91-2.21,3.77-2.21,5.69c0,2.48,0.91,4.5,2.77,6.18
				c1.93,1.73,4.52,2.57,7.93,2.57c2.26,0,4.96-0.61,8.02-1.81c2.94-1.15,6.26-2.82,9.88-4.99V74.46z"/>
		</g>
	</g>
</g>
</svg>
